<svg version="1.0" xmlns="http://www.w3.org/2000/svg" xmlns:xlink="http://www.w3.org/1999/xlink" width="100%"
     height="100%"
     viewBox="0 0 60.000000 60.000000" preserveAspectRatio="xMidYMid meet" color-interpolation-filters="sRGB"
     class="el-tooltip"
     style="margin: auto;">
  <g fill="#ee6a46" class="icon-text-wrapper icon-svg-group iconsvg" transform="translate(2,20)">
    <path
      d="M10.66-3.42L16.52-3.42L16.52 0L9.83 0Q7.93 0 6.92-0.20L6.92-0.20Q3.39-0.89 1.90-4.14L1.90-4.14Q0.92-6.32 0.92-9.54L0.92-9.54Q0.92-13.39 2.41-15.80L2.41-15.80Q3.51-17.55 5.33-18.36Q7.15-19.16 10.03-19.16L10.03-19.16L16.52-19.16L16.52-15.74L10.49-15.74Q7.76-15.74 6.49-14.28L6.49-14.28Q5.43-13.07 5.43-9.91L5.43-9.91Q5.43-5.66 7.07-4.34L7.07-4.34Q8.22-3.42 10.66-3.42L10.66-3.42ZM19.13-19.16L23.19-19.16L23.19-7.67Q23.19-6.29 23.42-5.53Q23.65-4.77 24.19-4.22L24.19-4.22Q25.40-3.05 27.55-3.05L27.55-3.05Q28.93-3.05 29.95-3.52Q30.97-3.99 31.37-4.80L31.37-4.80Q31.78-5.60 31.78-7.67L31.78-7.67L31.78-19.16L35.86-19.16L35.86-7.87Q35.86-5.63 35.38-4.18Q34.91-2.73 33.93-1.84L33.93-1.84Q31.66 0.14 27.50 0.14L27.50 0.14Q23.04 0.14 21.00-1.81L21.00-1.81Q19.94-2.82 19.54-4.07Q19.13-5.32 19.13-7.58L19.13-7.58L19.13-19.16ZM51.28 0L43.47-14.05L43.47 0L39.56 0L39.56-19.16L44.79-19.16L52.40-4.88L52.40-19.16L56.28-19.16L56.28 0L51.28 0Z"
      transform="translate(-0.91938482339024, 19.163427412540315)"></path>
  </g>
</svg>
