<svg version="1.0" xmlns="http://www.w3.org/2000/svg" xmlns:xlink="http://www.w3.org/1999/xlink"
     width="100%" height="100%" viewBox="0 0 210.000000 60.000000" preserveAspectRatio="xMidYMid meet"
     color-interpolation-filters="sRGB" class="el-tooltip" style="margin: auto;">
  <g fill="#ee6a46" class="icon-text-wrapper icon-svg-group iconsvg" transform="translate(24,40)">
    <path
      d="M10.66-3.42L16.52-3.42L16.52 0L9.83 0Q7.93 0 6.92-0.20L6.92-0.20Q3.39-0.89 1.90-4.14L1.90-4.14Q0.92-6.32 0.92-9.54L0.92-9.54Q0.92-13.39 2.41-15.80L2.41-15.80Q3.51-17.55 5.33-18.36Q7.15-19.16 10.03-19.16L10.03-19.16L16.52-19.16L16.52-15.74L10.49-15.74Q7.76-15.74 6.49-14.28L6.49-14.28Q5.43-13.07 5.43-9.91L5.43-9.91Q5.43-5.66 7.07-4.34L7.07-4.34Q8.22-3.42 10.66-3.42L10.66-3.42ZM19.13-19.16L23.19-19.16L23.19-7.67Q23.19-6.29 23.42-5.53Q23.65-4.77 24.19-4.22L24.19-4.22Q25.40-3.05 27.55-3.05L27.55-3.05Q28.93-3.05 29.95-3.52Q30.97-3.99 31.37-4.80L31.37-4.80Q31.78-5.60 31.78-7.67L31.78-7.67L31.78-19.16L35.86-19.16L35.86-7.87Q35.86-5.63 35.38-4.18Q34.91-2.73 33.93-1.84L33.93-1.84Q31.66 0.14 27.50 0.14L27.50 0.14Q23.04 0.14 21.00-1.81L21.00-1.81Q19.94-2.82 19.54-4.07Q19.13-5.32 19.13-7.58L19.13-7.58L19.13-19.16ZM51.28 0L43.47-14.05L43.47 0L39.56 0L39.56-19.16L44.79-19.16L52.40-4.88L52.40-19.16L56.28-19.16L56.28 0L51.28 0ZM58.24-9.14L64.93-9.14L64.93-5.69L58.24-5.69L58.24-9.14ZM69.79 0L65.02 0L72.95-19.16L77.63-19.16L85.56 0L80.79 0L78.92-4.42L71.65-4.42L69.79 0ZM78.03-7.84L75.30-14.54L72.57-7.84L78.03-7.84ZM87.63 0L87.63-19.16L95.76-19.16Q98.81-19.16 100.47-18.56L100.47-18.56Q103.55-17.44 104.58-14.45L104.58-14.45Q105.36-12.15 105.36-9.54L105.36-9.54Q105.36-6.95 104.61-4.65L104.61-4.65Q103.86-2.30 102.14-1.18L102.14-1.18Q101.05-0.49 99.74-0.24Q98.43 0 95.76 0L95.76 0L87.63 0ZM95.76-15.74L91.71-15.74L91.71-3.42L95.76-3.42Q98.43-3.42 99.47-4.60L99.47-4.60Q100.10-5.34 100.49-6.69Q100.87-8.04 100.87-9.57L100.87-9.57Q100.87-11.26 100.41-12.67Q99.95-14.08 99.21-14.77L99.21-14.77Q98.12-15.74 95.76-15.74L95.76-15.74ZM108.11-19.16L114.06-19.16L118.83-4.19L123.86-19.16L129.81-19.16L129.81 0L125.93 0L125.93-14.37L120.93 0L116.73 0L111.99-14.37L111.99 0L108.11 0L108.11-19.16ZM137.82 0L133.74 0L133.74-19.16L137.82-19.16L137.82 0ZM153.42 0L145.61-14.05L145.61 0L141.70 0L141.70-19.16L146.93-19.16L154.54-4.88L154.54-19.16L158.42-19.16L158.42 0L153.42 0Z"
      transform="translate(0, 0)"></path>
  </g>
</svg>
